HIERARCHY
ROOT Hips
{
  OFFSET 16.873 39.7365 -4.00522
  CHANNELS 6 Xposition Yposition Zposition Zrotation Xrotation Yrotation
  JOINT LeftHip
  {
    OFFSET 3.43 0 1.11022e-015
    CHANNELS 3 Zrotation Xrotation Yrotation
    JOINT LeftKnee
    {
      OFFSET -1.84741e-013 -18.47 1.22125e-014
      CHANNELS 3 Zrotation Xrotation Yrotation
      JOINT LeftAnkle
      {
        OFFSET -4.88143e-012 -17.95 -5.52003e-013
        CHANNELS 3 Zrotation Xrotation Yrotation
        End Site
        {
          OFFSET 0 -3.12 0
        }
      }
    }
  }
  JOINT RightHip
  {
    OFFSET -3.43 -1.42109e-014 1.77636e-015
    CHANNELS 3 Zrotation Xrotation Yrotation
    JOINT RightKnee
    {
      OFFSET 7.81597e-014 -18.47 7.37188e-014
      CHANNELS 3 Zrotation Xrotation Yrotation
      JOINT RightAnkle
      {
        OFFSET 1.35003e-012 -17.95 1.09779e-012
        CHANNELS 3 Zrotation Xrotation Yrotation
        End Site
        {
          OFFSET 0 -3.12 0
        }
      }
    }
  }
  JOINT Chest
  {
    OFFSET 6.03961e-014 4.57 4.88498e-015
    CHANNELS 3 Zrotation Xrotation Yrotation
    JOINT Chest2
    {
      OFFSET 0 6.57 -1.9984e-015
      CHANNELS 3 Zrotation Xrotation Yrotation
      JOINT LeftCollar
      {
        OFFSET 1.06 4.19 1.76
        CHANNELS 3 Zrotation Xrotation Yrotation
        JOINT LeftShoulder
        {
          OFFSET 5.81 -1.42109e-014 -1.77636e-015
          CHANNELS 3 Zrotation Xrotation Yrotation
          JOINT LeftElbow
          {
            OFFSET 9.23706e-014 -12.08 -1.42109e-014
            CHANNELS 3 Zrotation Xrotation Yrotation
            JOINT LeftWrist
            {
              OFFSET 2.98428e-013 -9.82 -6.21725e-015
              CHANNELS 3 Zrotation Xrotation Yrotation
              End Site
              {
                OFFSET 0 -7.37 0
              }
            }
          }
        }
      }
      JOINT RightCollar
      {
        OFFSET -1.06 4.19 1.76
        CHANNELS 3 Zrotation Xrotation Yrotation
        JOINT RightShoulder
        {
          OFFSET -6.06 -7.10543e-015 1.11022e-016
          CHANNELS 3 Zrotation Xrotation Yrotation
          JOINT RightElbow
          {
            OFFSET -2.13163e-014 -11.08 1.5854e-013
            CHANNELS 3 Zrotation Xrotation Yrotation
            JOINT RightWrist
            {
              OFFSET -2.20268e-013 -9.82 2.81553e-013
              CHANNELS 3 Zrotation Xrotation Yrotation
              End Site
              {
                OFFSET 0 -7.14001 0
              }
            }
          }
        }
      }
      JOINT Neck
      {
        OFFSET 0 4.05 -3.10862e-015
        CHANNELS 3 Zrotation Xrotation Yrotation
        JOINT Head
        {
          OFFSET -7.10543e-015 5.19 -3.55271e-015
          CHANNELS 3 Zrotation Xrotation Yrotation
          End Site
          {
            OFFSET 0 4.14001 0
          }
        }
      }
    }
  }
}
MOTION
Frames:	21
Frame Time:	0.0333333
16.873 39.7365 -4.00522 -0.100247 -3.99273 -0.4229 4.73244 -0.429494 3.94153 0.70392 15.8201 15.8327 -4.94652 -9.24418 -0.400154 -2.81931 3.76488 -5.97148 -0.789803 10.0844 -8.60487 5.07364 -8.40637 0.373111 -0.0223225 0.285547 -0.804458 0.536916 -2.18155 -1.59555 9.75874 0.139976 3.36776 95.1943 7.03427 10.7343 -3.40825 -12.0987 -0.715164 1.66581 5.43578 -3.8817 -9.89911 0.40133 -2.705 -92.383 7.32962 -1.88169 0.983041 -4.48743 0.0769211 -5.64578 0.937695 6.86368 -0.410926 14.0433 0.230383 -0.0360079 -2.90297 0.266775 
16.8746 39.7512 -4.0181 0.0229752 -3.90678 -0.299293 4.56773 -0.250632 3.822 0.726345 15.3019 15.5503 -4.83861 -9.05247 -0.383263 -2.94107 3.75588 -6.01866 -0.832391 9.98871 -8.4639 5.10568 -8.32392 0.371775 0.00173243 0.283815 -0.766635 0.565727 -2.14248 -1.47512 9.1063 0.123799 3.45224 95.4572 6.69267 10.9386 -3.37289 -11.9287 -0.69793 1.8002 5.12481 -3.92163 -9.62037 0.446025 -3.97524 -92.7944 6.26884 -3.05054 0.8466 -5.47492 0.0807799 -5.80456 1.17438 7.89841 -0.806858 13.7926 0.265057 0.193034 -2.51386 0.0701784 
16.8719 39.7575 -4.02971 -0.0148742 -3.96419 -0.193259 4.55946 -0.121755 3.75003 0.790684 15.1504 15.5607 -4.87596 -8.97595 -0.382946 -2.89771 4.09796 -6.06211 -0.829462 9.46504 -8.5478 5.10768 -8.09564 0.361686 0.063286 0.341539 -0.795518 0.595328 -2.04072 -1.49914 8.69056 0.110636 3.43304 95.69 6.65683 10.93 -3.40432 -11.9676 -0.706708 1.89518 5.11404 -3.36542 -9.88482 0.457488 -4.0284 -92.4772 6.18352 -3.18768 0.817218 -5.55907 0.0791707 -6.02434 1.09273 7.62819 -0.933863 13.7805 0.551777 0.259009 -2.64739 0.27533 
16.8761 39.7599 -4.03743 0.0411383 -3.98582 -0.201439 4.52546 -0.203895 3.78077 0.764228 15.2606 15.4787 -4.75023 -8.9947 -0.373843 -2.95027 3.80863 -6.04952 -0.843929 10.0163 -8.54408 5.12335 -8.25009 0.369743 -0.0492518 0.343932 -0.799257 0.477816 -2.06648 -1.53567 9.35995 0.126095 3.3116 94.9249 6.51517 11.9334 -2.9755 -11.8766 -0.6129 1.78068 4.9682 -4.77304 -9.30684 0.430504 -3.85242 -92.7526 6.17677 -3.19456 0.818002 -5.52012 0.0786933 -5.79585 1.11906 7.50151 -0.577727 13.8479 0.787783 0.105609 -2.42728 0.71275 
16.8801 39.748 -4.04243 0.0668594 -4.03353 -0.278023 4.49649 -0.270724 3.79018 0.791451 15.4976 15.6105 -4.8203 -9.08753 -0.383296 -2.98336 3.98317 -6.07839 -0.803529 9.70682 -8.52592 5.06635 -8.26813 0.366426 -0.0893716 0.37449 -0.781285 0.463038 -2.02303 -1.52688 9.47334 0.126841 3.24672 94.8931 6.60575 11.6539 -3.12065 -11.9002 -0.644109 1.50214 4.94662 -4.46856 -9.00737 0.4162 -3.73196 -93.0051 6.04692 -3.25639 0.843902 -5.22264 0.0768226 -5.8363 0.946757 7.64081 -0.418985 14.0237 0.967391 -0.486694 -2.65691 1.07621 
16.8879 39.7483 -4.04264 -0.00539587 -3.95165 -0.256226 4.55413 -0.103485 3.80442 0.798926 15.0573 15.6696 -5.03485 -8.89123 -0.391693 -2.93974 3.82082 -6.04961 -0.809264 9.94448 -8.50538 5.11564 -8.30595 0.371694 0.0966889 0.356149 -0.727335 0.683477 -2.02982 -1.38815 8.47667 0.105672 3.48081 95.4283 6.20739 11.5314 -3.27434 -11.8435 -0.672725 1.62289 5.02389 -3.83936 -9.67141 0.447213 -3.96091 -92.6825 6.05 -3.18366 0.912176 -5.42032 0.0861726 -6.28162 0.919496 7.49085 -0.979003 13.7015 1.27451 -0.406268 -2.22257 1.10059 
16.893 39.7444 -4.04404 0.00752647 -3.94933 -0.211348 4.53154 -0.177808 3.77162 0.79642 15.2169 15.5303 -4.98845 -9.00291 -0.392974 -2.94958 3.83827 -6.04543 -0.850772 9.92488 -8.52936 5.16314 -8.32667 0.376089 0.0621333 0.350655 -0.729462 0.635459 -2.0196 -1.40589 8.83937 0.126129 3.76175 94.9426 5.81165 11.7075 -3.24666 -11.9359 -0.672155 1.73278 5.08398 -3.99966 -10.0826 0.433226 -3.32546 -92.2838 6.75242 -2.32279 1.10104 -4.932 0.0946719 -6.24912 0.654834 6.56367 -0.926887 13.8259 1.52104 -0.347989 -2.48534 1.327 
16.893 39.7389 -4.04751 0.0152824 -3.95742 -0.213897 4.55122 -0.0753118 3.80184 0.771857 14.9907 15.572 -5.12971 -8.86302 -0.397812 -2.94122 3.91681 -6.04382 -0.83646 9.68715 -8.64605 5.13176 -8.28008 0.371701 0.0695824 0.376777 -0.672057 0.6493 -2.03228 -1.31779 8.83077 0.122715 3.66823 94.7425 5.77291 12.2774 -2.96425 -12.0808 -0.620921 1.55933 5.11408 -4.18112 -10.1682 0.437846 -3.37262 -92.1245 6.76036 -2.38982 1.06248 -4.89582 0.0906869 -6.1876 0.734215 6.64657 -0.949971 13.7381 1.56823 -0.371703 -2.09131 1.36264 
16.8929 39.744 -4.04502 0.0424335 -3.84259 -0.181105 4.55118 -0.146322 3.82713 0.774718 14.8975 15.3835 -5.06808 -8.8304 -0.391573 -2.90138 3.93405 -5.98607 -0.845799 9.4591 -8.73795 5.09162 -8.21462 0.365864 0.0240255 0.298493 -0.716747 0.699802 -2.10517 -1.38886 8.7219 0.121707 3.74452 94.785 5.91688 12.0869 -2.95554 -12.1814 -0.62417 1.60782 5.06608 -4.56275 -10.3996 0.445799 -3.39651 -91.9416 6.68932 -2.26454 1.12913 -5.12495 0.100876 -6.24813 0.8153 6.66207 -1.20547 13.7556 1.79472 -0.120125 -1.9664 1.40739 
16.9043 39.7454 -4.0421 0.0181385 -3.92048 -0.100186 4.56234 -0.381752 3.81276 0.738344 15.5085 15.4181 -4.82515 -9.13781 -0.385813 -2.9108 4.20577 -6.05198 -0.831247 9.11739 -8.72418 5.10794 -8.07788 0.360909 0.0954276 0.340539 -0.697268 0.679225 -2.04301 -1.35864 8.7888 0.124238 3.75486 94.7448 5.734 12.2565 -2.96667 -12.1164 -0.623233 1.72065 5.16856 -4.32798 -10.1986 0.442714 -3.46 -92.0085 6.73187 -2.67966 0.854269 -5.04698 0.0751578 -6.16667 0.679456 6.85498 -1.12104 13.7359 1.71485 -0.405504 -1.6818 1.43571 
16.9123 39.7384 -4.03862 0.0555655 -3.92832 -0.0408061 4.5057 -0.33917 3.76529 0.755334 15.3884 15.5694 -4.95811 -9.03884 -0.392146 -2.98737 4.06228 -6.0882 -0.817018 9.49387 -8.60136 5.13776 -8.28025 0.372144 0.0858884 0.342439 -0.70522 0.647107 -2.05221 -1.37925 8.79057 0.12225 3.69307 94.9342 5.92386 11.7232 -3.20135 -12.1794 -0.676073 1.84881 5.22309 -3.7752 -10.1504 0.437504 -3.37668 -92.0432 6.86054 -2.64133 0.829035 -5.03471 0.0727605 -6.20854 0.648977 6.80734 -1.1518 14.0296 1.58087 -0.652999 -2.23394 1.34061 
16.9105 39.735 -4.04139 0.0672498 -3.82568 -0.0247682 4.42778 -0.575046 3.67778 0.830124 15.6395 15.5682 -4.92429 -9.16175 -0.394786 -2.97586 3.8398 -6.02965 -0.903931 9.75058 -8.62172 5.21682 -8.37932 0.382415 0.0680628 0.278696 -0.724226 0.611356 -2.10789 -1.39235 8.73535 0.122399 3.75222 95.0846 6.15787 11.4296 -3.20194 -12.4434 -0.690624 1.72094 5.49773 -3.90046 -10.2857 0.444577 -3.44328 -91.8998 6.86984 -2.58757 0.845436 -5.38184 0.0793014 -6.13398 0.883492 6.96344 -1.25273 13.9578 1.71397 -0.243988 -1.83843 1.33261 
16.9131 39.7384 -4.03548 0.0242575 -3.90792 0.0331186 4.45924 -0.278575 3.66902 0.833251 15.24 15.6574 -5.07303 -8.97063 -0.398206 -2.93159 4.17737 -6.07506 -0.892095 9.23961 -8.82087 5.22171 -8.15394 0.372444 0.115254 0.34136 -0.711136 0.61847 -2.029 -1.37439 8.74908 0.123743 3.77951 95.0682 6.07768 11.6876 -3.12435 -12.4581 -0.674643 1.68294 5.4386 -3.81177 -10.1069 0.441393 -3.49257 -92.0679 6.92633 -2.62263 0.795205 -5.27052 0.0730507 -6.29721 0.748863 6.85056 -1.16103 13.8546 1.64161 -0.187398 -1.52608 1.30801 
16.9131 39.7444 -4.03459 0.00237128 -3.81961 0.0575021 4.54257 -0.821471 3.74868 0.749961 16.0135 15.4726 -4.67028 -9.31453 -0.38067 -2.88259 4.04264 -6.01726 -0.896093 9.26442 -8.85688 5.19845 -8.09417 0.368055 0.108184 0.31564 -0.722577 0.640255 -2.09562 -1.39271 8.81836 0.130565 3.91537 94.9367 5.99555 11.8402 -3.04854 -12.4779 -0.659271 1.67971 5.41561 -4.14217 -10.1979 0.444767 -3.50565 -91.9195 6.96197 -2.586 0.806186 -5.37954 0.0755871 -6.37494 0.751256 7.06202 -1.20628 13.8193 1.69794 -0.041203 -1.4532 1.31189 
16.919 39.7357 -4.03052 0.0745759 -3.85063 0.0342681 4.4369 -0.388805 3.70111 0.838015 15.3191 15.4649 -5.02484 -9.0108 -0.396192 -2.94269 3.98428 -6.00837 -0.919943 9.49336 -8.89051 5.22824 -8.28145 0.378762 0.0224918 0.311675 -0.672764 0.604025 -2.09421 -1.33526 8.82337 0.130131 3.89724 95.0208 5.9414 11.8971 -3.03925 -12.4766 -0.65719 1.58218 5.5038 -4.21653 -9.89272 0.432216 -3.43097 -92.2478 7.17146 -2.41569 0.845515 -5.50036 0.0810502 -6.21066 0.687771 6.78108 -1.0348 13.8836 1.62941 -0.21622 -1.37838 1.36267 
16.9219 39.7466 -4.03274 0.0896207 -3.86674 0.126864 4.46524 -0.371999 3.74939 0.726857 15.2852 15.4419 -4.84022 -8.99953 -0.381139 -2.96986 3.98241 -6.05091 -0.904875 9.5774 -8.85642 5.23377 -8.23258 0.376918 0.00115582 0.325749 -0.665222 0.570594 -2.06192 -1.31954 8.85845 0.129906 3.85514 94.9897 5.9079 11.7079 -3.16401 -12.5106 -0.686055 1.74913 5.42758 -3.7406 -9.92785 0.436644 -3.50932 -92.0505 7.20763 -2.45252 0.82132 -5.58658 0.0799608 -6.54284 0.686113 7.05835 -0.997454 13.9326 1.63213 -0.115792 -1.45362 1.35304 
16.9262 39.7432 -4.03451 0.0581863 -3.83772 0.110957 4.4109 -0.574026 3.64338 0.839215 15.596 15.5974 -4.8569 -9.1172 -0.387476 -2.94117 4.04622 -6.03164 -0.93772 9.33566 -8.84876 5.25254 -8.14597 0.374278 0.0486857 0.31278 -0.668158 0.573935 -2.09431 -1.31112 8.78497 0.128222 3.8791 95.0219 5.93542 11.633 -3.18386 -12.5508 -0.692547 1.82078 5.40396 -3.70948 -9.97203 0.432876 -3.39141 -92.0182 7.31909 -2.55105 0.767455 -5.6359 0.0753734 -6.38114 0.443121 7.1106 -1.04371 13.9381 1.68545 -0.0592776 -1.33293 1.3681 
16.9315 39.739 -4.03643 0.103626 -3.83789 0.121421 4.37003 -0.409883 3.63243 0.819691 15.2953 15.5763 -4.97088 -8.98875 -0.39097 -2.98447 4.0094 -6.04566 -0.952023 9.41681 -8.91084 5.27818 -8.21904 0.379493 -0.00516126 0.312371 -0.684606 0.522775 -2.0885 -1.34669 8.95998 0.137552 3.97723 94.8706 5.91684 11.6607 -3.1613 -12.6168 -0.69119 1.81349 5.36514 -3.6956 -9.78824 0.42795 -3.40395 -92.2663 7.21972 -1.92911 1.1239 -5.4587 0.106928 -6.914 0.490943 6.31865 -0.978217 13.8665 1.76014 -0.0620562 -1.24049 1.47804 
16.9341 39.7448 -4.04067 0.0531407 -3.90062 0.142126 4.43095 -0.51106 3.67902 0.820256 15.6107 15.3822 -4.79415 -9.1601 -0.384271 -2.94431 4.06373 -6.04513 -0.937693 9.44913 -8.88621 5.27424 -8.16132 0.376537 0.0386724 0.358325 -0.690071 0.571909 -2.0154 -1.35009 8.94766 0.137167 3.97848 94.8562 5.86768 11.5866 -3.22973 -12.5734 -0.703788 1.83277 5.35116 -3.58263 -9.77324 0.426813 -3.38739 -92.1995 7.21131 -2.24008 0.96583 -5.48287 0.092292 -7.02593 0.541526 6.42312 -1.05243 13.8631 1.7856 -0.0346763 -1.40132 1.4604 
16.9412 39.7417 -4.04919 0.0407264 -3.86252 0.134781 4.48394 -0.725103 3.73927 0.80459 15.9034 15.3455 -4.7277 -9.26921 -0.383472 -2.90102 4.03965 -6.00022 -0.930722 9.34621 -9.05938 5.2501 -8.13345 0.373528 0.0396747 0.340709 -0.69005 0.629175 -2.06453 -1.35506 8.8291 0.128163 3.83263 95.0335 5.99502 11.322 -3.38552 -12.3953 -0.727525 1.94352 5.19088 -3.22283 -9.83048 0.426876 -3.38993 -92.2193 7.12815 -2.12665 1.07151 -5.38589 0.100587 -7.29497 0.403624 6.27761 -1.08699 13.9477 1.75548 -0.244414 -1.53891 1.46163 
16.9493 39.7402 -4.0528 0.0283078 -3.92014 0.210423 4.45897 -0.798258 3.67635 0.791556 16.1069 15.3742 -4.66136 -9.3595 -0.381784 -2.93688 4.14594 -6.05608 -0.939096 9.31472 -8.84529 5.28571 -8.13158 0.375977 0.101448 0.383398 -0.739082 0.624513 -2.00544 -1.41159 8.80292 0.13039 3.926 94.9233 5.92126 11.329 -3.37889 -12.4218 -0.727625 2.22789 5.29274 -3.24697 -9.86412 0.427711 -3.34518 -92.3263 7.12025 -2.00221 1.15308 -5.27427 0.10601 -7.39208 0.371284 6.29124 -1.19545 13.8719 1.75894 -0.262038 -1.48751 1.41891 
